HIERARCHY
ROOT Hips
{
    OFFSET 0.000000 0.000000 0.000000
    CHANNELS 6 Xposition Yposition Zposition Zrotation Xrotation Yrotation
    JOINT Spine
    {
        OFFSET -0.000000 9.701283 -0.000018
        CHANNELS 3 Zrotation Xrotation Yrotation
        JOINT Spine1
        {
            OFFSET 0.000000 22.755707 -0.000008
            CHANNELS 3 Zrotation Xrotation Yrotation
            JOINT Neck
            {
                OFFSET -0.000003 20.853481 -0.000011
                CHANNELS 3 Zrotation Xrotation Yrotation
                JOINT Head
                {
                    OFFSET -0.000002 12.839990 1.902205
                    CHANNELS 3 Zrotation Xrotation Yrotation
                    End Site
                    {
                        OFFSET 0.000000 19.022141 0.000000
                    }
                }
            }
            JOINT LeftShoulder
            {
                OFFSET 3.797835 16.121201 -0.677276
                CHANNELS 3 Zrotation Xrotation Yrotation
                JOINT LeftArm
                {
                    OFFSET 11.576603 -0.000001 -0.000004
                    CHANNELS 3 Zrotation Xrotation Yrotation
                    JOINT LeftForeArm
                    {
                        OFFSET 29.906404 0.000000 0.000010
                        CHANNELS 3 Zrotation Xrotation Yrotation
                        JOINT LeftHand
                        {
                            OFFSET 24.318304 0.000009 0.000021
                            CHANNELS 3 Zrotation Xrotation Yrotation
                            JOINT LeftHandThumb1
                            {
                                OFFSET 1.987811 -2.258875 3.162444
                                CHANNELS 3 Zrotation Xrotation Yrotation
                                JOINT LeftHandThumb2
                                {
                                    OFFSET 3.002281 -0.000009 -0.000001
                                    CHANNELS 3 Zrotation Xrotation Yrotation
                                    JOINT LeftHandThumb3
                                    {
                                        OFFSET 2.566092 0.000006 0.000003
                                        CHANNELS 3 Zrotation Xrotation Yrotation
                                        End Site
                                        {
                                            OFFSET 2.440626 0.000000 0.000000
                                        }
                                    }
                                }
                            }
                            JOINT LeftHandIndex1
                            {
                                OFFSET 8.131963 0.000005 3.162438
                                CHANNELS 3 Zrotation Xrotation Yrotation
                                JOINT LeftHandIndex2
                                {
                                    OFFSET 4.517766 0.000009 0.000021
                                    CHANNELS 3 Zrotation Xrotation Yrotation
                                    JOINT LeftHandIndex3
                                    {
                                        OFFSET 2.258877 -0.000002 -0.000012
                                        CHANNELS 3 Zrotation Xrotation Yrotation
                                        End Site
                                        {
                                            OFFSET 2.148437 0.000000 0.000000
                                        }
                                    }
                                }
                            }
                            JOINT LeftHandMiddle1
                            {
                                OFFSET 8.131968 0.000007 1.048142
                                CHANNELS 3 Zrotation Xrotation Yrotation
                                JOINT LeftHandMiddle2
                                {
                                    OFFSET 4.969536 0.000008 0.000020
                                    CHANNELS 3 Zrotation Xrotation Yrotation
                                    JOINT LeftHandMiddle3
                                    {
                                        OFFSET 2.710648 -0.000006 -0.000012
                                        CHANNELS 3 Zrotation Xrotation Yrotation
                                        End Site
                                        {
                                            OFFSET 2.578118 0.000000 0.000000
                                        }
                                    }
                                }
                            }
                            JOINT LeftHandRing1
                            {
                                OFFSET 7.680190 -0.000006 -1.048131
                                CHANNELS 3 Zrotation Xrotation Yrotation
                                JOINT LeftHandRing2
                                {
                                    OFFSET 4.517766 0.000004 0.000022
                                    CHANNELS 3 Zrotation Xrotation Yrotation
                                    JOINT LeftHandRing3
                                    {
                                        OFFSET 2.258877 -0.000001 -0.000012
                                        CHANNELS 3 Zrotation Xrotation Yrotation
                                        End Site
                                        {
                                            OFFSET 2.148437 0.000000 0.000000
                                        }
                                    }
                                }
                            }
                            JOINT LeftHandPinky1
                            {
                                OFFSET 7.228415 0.000003 -3.162425
                                CHANNELS 3 Zrotation Xrotation Yrotation
                                JOINT LeftHandPinky2
                                {
                                    OFFSET 3.614197 -0.000005 -0.000017
                                    CHANNELS 3 Zrotation Xrotation Yrotation
                                    JOINT LeftHandPinky3
                                    {
                                        OFFSET 1.807099 -0.000003 -0.000008
                                        CHANNELS 3 Zrotation Xrotation Yrotation
                                        End Site
                                        {
                                            OFFSET 1.718745 0.000000 0.000000
                                        }
                                    }
                                }
                            }
                        }
                    }
                }
            }
            JOINT RightShoulder
            {
                OFFSET -3.797832 16.121197 -0.677301
                CHANNELS 3 Zrotation Xrotation Yrotation
                JOINT RightArm
                {
                    OFFSET -11.576597 0.000000 0.000019
                    CHANNELS 3 Zrotation Xrotation Yrotation
                    JOINT RightForeArm
                    {
                        OFFSET -29.906410 0.000003 -0.000011
                        CHANNELS 3 Zrotation Xrotation Yrotation
                        JOINT RightHand
                        {
                            OFFSET -24.318323 -0.000004 0.000013
                            CHANNELS 3 Zrotation Xrotation Yrotation
                            JOINT RightHandThumb1
                            {
                                OFFSET -1.987809 -2.258876 3.162430
                                CHANNELS 3 Zrotation Xrotation Yrotation
                                JOINT RightHandThumb2
                                {
                                    OFFSET -3.002287 -0.000001 -0.000003
                                    CHANNELS 3 Zrotation Xrotation Yrotation
                                    JOINT RightHandThumb3
                                    {
                                        OFFSET -2.566096 -0.000002 0.000018
                                        CHANNELS 3 Zrotation Xrotation Yrotation
                                        End Site
                                        {
                                            OFFSET -2.440626 0.000000 0.000000
                                        }
                                    }
                                }
                            }
                            JOINT RightHandIndex1
                            {
                                OFFSET -8.131954 0.000017 3.162421
                                CHANNELS 3 Zrotation Xrotation Yrotation
                                JOINT RightHandIndex2
                                {
                                    OFFSET -4.517753 0.000013 -0.000018
                                    CHANNELS 3 Zrotation Xrotation Yrotation
                                    JOINT RightHandIndex3
                                    {
                                        OFFSET -2.258884 -0.000008 0.000008
                                        CHANNELS 3 Zrotation Xrotation Yrotation
                                        End Site
                                        {
                                            OFFSET -2.148437 0.000000 0.000000
                                        }
                                    }
                                }
                            }
                            JOINT RightHandMiddle1
                            {
                                OFFSET -8.131962 -0.000003 1.048123
                                CHANNELS 3 Zrotation Xrotation Yrotation
                                JOINT RightHandMiddle2
                                {
                                    OFFSET -4.969530 0.000001 0.000001
                                    CHANNELS 3 Zrotation Xrotation Yrotation
                                    JOINT RightHandMiddle3
                                    {
                                        OFFSET -2.710646 0.000010 -0.000006
                                        CHANNELS 3 Zrotation Xrotation Yrotation
                                        End Site
                                        {
                                            OFFSET -2.578118 0.000000 0.000000
                                        }
                                    }
                                }
                            }
                            JOINT RightHandRing1
                            {
                                OFFSET -7.680185 0.000006 -1.048131
                                CHANNELS 3 Zrotation Xrotation Yrotation
                                JOINT RightHandRing2
                                {
                                    OFFSET -4.517752 0.000016 -0.000015
                                    CHANNELS 3 Zrotation Xrotation Yrotation
                                    JOINT RightHandRing3
                                    {
                                        OFFSET -2.258884 -0.000009 0.000007
                                        CHANNELS 3 Zrotation Xrotation Yrotation
                                        End Site
                                        {
                                            OFFSET -2.148437 0.000000 0.000000
                                        }
                                    }
                                }
                            }
                            JOINT RightHandPinky1
                            {
                                OFFSET -7.228407 0.000007 -3.162434
                                CHANNELS 3 Zrotation Xrotation Yrotation
                                JOINT RightHandPinky2
                                {
                                    OFFSET -3.614193 0.000010 -0.000013
                                    CHANNELS 3 Zrotation Xrotation Yrotation
                                    JOINT RightHandPinky3
                                    {
                                        OFFSET -1.807097 0.000005 -0.000006
                                        CHANNELS 3 Zrotation Xrotation Yrotation
                                        End Site
                                        {
                                            OFFSET -1.718745 0.000000 0.000000
                                        }
                                    }
                                }
                            }
                        }
                    }
                }
            }
        }
    }
    JOINT LeftUpLeg
    {
        OFFSET 9.511073 -0.000001 0.000016
        CHANNELS 3 Zrotation Xrotation Yrotation
        JOINT LeftLeg
        {
            OFFSET 0.000000 -43.875591 0.000003
            CHANNELS 3 Zrotation Xrotation Yrotation
            JOINT LeftFoot
            {
                OFFSET 0.000001 -35.354198 0.000023
                CHANNELS 3 Zrotation Xrotation Yrotation
                JOINT LeftToeBase
                {
                    OFFSET 0.000002 -6.182190 14.266592
                    CHANNELS 3 Zrotation Xrotation Yrotation
                    End Site
                    {
                        OFFSET 0.000000 0.000000 3.804428
                    }
                }
            }
        }
    }
    JOINT RightUpLeg
    {
        OFFSET -9.511073 0.000001 -0.000016
        CHANNELS 3 Zrotation Xrotation Yrotation
        JOINT RightLeg
        {
            OFFSET -0.000006 -43.875599 -0.000023
            CHANNELS 3 Zrotation Xrotation Yrotation
            JOINT RightFoot
            {
                OFFSET 0.000001 -35.354198 0.000011
                CHANNELS 3 Zrotation Xrotation Yrotation
                JOINT RightToeBase
                {
                    OFFSET 0.000004 -6.182189 14.266604
                    CHANNELS 3 Zrotation Xrotation Yrotation
                    End Site
                    {
                        OFFSET 0.000000 0.000000 3.804428
                    }
                }
            }
        }
    }
}
MOTION
Frames:    4
Frame Time:    0.002778
-31.950226    87.922058    613.480896    -0.599943    -1.451215    163.481064    0.104267    7.219687    -7.594793    0.521331    7.219403    -7.647201    4.654252    12.751184    -9.394166    4.654246    12.751186    -9.394160    4.889556    -1.121984    1.525913    -61.208508    8.501039    -16.458733    -32.975941    17.173883    -73.073608    -24.247704    -3.504663    7.023373    47.448193    38.866394    -34.355038    -35.000015    0.000008    -0.000002    -0.000000    0.000000    -0.000000    -0.000004    9.999986    0.000002    -0.000000    0.000000    -0.000000    -0.000000    0.000000    -0.000000    -0.000000    0.000000    -0.000000    -0.000000    0.000000    -0.000000    -0.000000    0.000000    -0.000000    -0.000000    0.000000    -0.000000    -0.000000    0.000000    -0.000000    -0.000000    0.000000    -0.000000    0.000002    -9.999991    -0.000001    -0.000000    0.000000    -0.000000    -0.000000    0.000000    -0.000000    -5.955829    3.612890    -2.816559    74.061859    2.969873    -1.634682    31.666168    2.749117    47.521973    -56.402435    15.392581    -10.271593    -47.448200    38.866398    34.355045    35.000023    -0.000000    -0.000001    -0.000000    0.000000    -0.000000    0.000004    9.999990    -0.000004    -0.000000    0.000000    -0.000000    -0.000000    0.000000    -0.000000    -0.000000    0.000000    -0.000000    -0.000000    0.000000    -0.000000    -0.000000    0.000000    -0.000000    -0.000000    0.000000    -0.000000    -0.000000    0.000000    -0.000000    -0.000000    0.000000    -0.000000    0.000003    -9.999996    -0.000001    -0.000000    0.000000    -0.000000    -0.000000    0.000000    -0.000000    13.657783    -18.299950    -3.339648    -0.000001    48.888130    -0.000001    -9.307140    -27.365885    -1.745648    -0.000001    -1.550813    -0.000001    -16.814108    -28.336210    -3.622191    -0.000001    50.893280    0.000002    15.979747    -14.317538    -7.542336    -0.000000    -4.226392    -0.000004    
-32.079056    87.885162    613.427856    -0.528437    -1.414371    163.219193    0.110465    7.264044    -7.804233    0.552326    7.263725    -7.860104    4.673613    12.970436    -9.201834    4.673610    12.970429    -9.201828    4.915384    -1.059433    1.585016    -61.063454    8.592695    -16.401974    -33.016186    17.287823    -73.190430    -24.119173    -3.504307    7.063245    47.448189    38.866394    -34.355026    -35.000023    0.000005    0.000000    -0.000000    0.000000    -0.000000    0.000004    9.999996    -0.000002    -0.000000    0.000000    -0.000000    -0.000000    0.000000    -0.000000    -0.000000    0.000000    -0.000000    -0.000000    0.000000    -0.000000    -0.000000    0.000000    -0.000000    -0.000000    0.000000    -0.000000    -0.000000    0.000000    -0.000000    -0.000000    0.000000    -0.000000    0.000000    -9.999997    0.000001    -0.000000    0.000000    -0.000000    -0.000000    0.000000    -0.000000    -5.948209    3.792556    -2.910432    74.205795    3.114869    -1.899224    31.871885    2.186393    47.016102    -56.296192    15.424378    -10.334679    -47.448204    38.866398    34.355042    35.000023    0.000000    0.000001    -0.000000    0.000000    -0.000000    0.000003    9.999990    -0.000000    -0.000000    0.000000    -0.000000    -0.000000    0.000000    -0.000000    -0.000000    0.000000    -0.000000    -0.000000    0.000000    -0.000000    -0.000000    0.000000    -0.000000    -0.000000    0.000000    -0.000000    -0.000000    0.000000    -0.000000    -0.000000    0.000000    -0.000000    -0.000000    -9.999993    -0.000002    -0.000000    0.000000    -0.000000    -0.000000    0.000000    -0.000000    13.638462    -18.251686    -3.445423    -0.000002    49.302155    0.000002    -9.231842    -27.511229    -1.945932    0.000000    -1.571310    0.000001    -16.820055    -28.360189    -3.589468    -0.000004    50.854790    0.000004    15.956712    -14.193616    -7.327974    0.000000    -4.213626    0.000005    
-32.207741    87.848915    613.370972    -0.452731    -1.377312    162.961731    0.116747    7.304528    -8.017755    0.583735    7.304169    -8.077127    4.684598    13.194604    -9.001575    4.684598    13.194599    -9.001570    4.941253    -0.990052    1.649567    -60.904625    8.702044    -16.347528    -33.049641    17.407087    -73.310555    -23.992371    -3.515138    7.127748    47.448196    38.866394    -34.355042    -35.000023    -0.000010    -0.000003    -0.000000    0.000000    -0.000000    0.000001    9.999994    -0.000002    -0.000000    0.000000    -0.000000    -0.000000    0.000000    -0.000000    -0.000000    0.000000    -0.000000    -0.000000    0.000000    -0.000000    -0.000000    0.000000    -0.000000    -0.000000    0.000000    -0.000000    -0.000000    0.000000    -0.000000    -0.000000    0.000000    -0.000000    0.000000    -9.999996    0.000001    -0.000000    0.000000    -0.000000    -0.000000    0.000000    -0.000000    -5.937436    3.972640    -3.012840    74.332306    3.247495    -2.169848    32.004063    1.683982    46.521614    -56.150253    15.455762    -10.411690    -47.448204    38.866394    34.355045    35.000023    -0.000002    -0.000002    -0.000000    0.000000    -0.000000    0.000003    9.999998    0.000002    -0.000000    0.000000    -0.000000    -0.000000    0.000000    -0.000000    -0.000000    0.000000    -0.000000    -0.000000    0.000000    -0.000000    -0.000000    0.000000    -0.000000    -0.000000    0.000000    -0.000000    -0.000000    0.000000    -0.000000    -0.000000    0.000000    -0.000000    0.000001    -9.999991    0.000006    -0.000000    0.000000    -0.000000    -0.000000    0.000000    -0.000000    13.618128    -18.201710    -3.565397    -0.000002    49.718960    0.000000    -9.139480    -27.622952    -2.108981    0.000000    -1.594075    0.000000    -16.831823    -28.376133    -3.584089    -0.000002    50.811451    -0.000001    15.925202    -14.070630    -7.107021    0.000000    -4.206297    -0.000005    
-32.351707    87.812317    613.318848    -0.375756    -1.343080    162.672485    0.124714    7.350918    -8.225112    0.623567    7.350503    -8.288932    4.688029    13.420663    -8.810404    4.688027    13.420665    -8.810397    4.947555    -0.932170    1.714702    -60.740940    8.807953    -16.290768    -33.038750    17.531597    -73.447006    -23.886894    -3.520649    7.174831    47.448204    38.866386    -34.355049    -35.000015    0.000000    0.000001    -0.000000    0.000000    -0.000000    -0.000002    9.999993    -0.000001    -0.000000    0.000000    -0.000000    -0.000000    0.000000    -0.000000    -0.000000    0.000000    -0.000000    -0.000000    0.000000    -0.000000    -0.000000    0.000000    -0.000000    -0.000000    0.000000    -0.000000    -0.000000    0.000000    -0.000000    -0.000000    0.000000    -0.000000    -0.000002    -9.999993    0.000002    -0.000000    0.000000    -0.000000    -0.000000    0.000000    -0.000000    -5.940681    4.131831    -3.079766    74.439697    3.363414    -2.446594    32.093090    1.217333    46.036320    -55.945576    15.491904    -10.513736    -47.448215    38.866394    34.355045    35.000031    0.000005    -0.000002    -0.000000    0.000000    -0.000000    0.000000    9.999993    -0.000002    -0.000000    0.000000    -0.000000    -0.000000    0.000000    -0.000000    -0.000000    0.000000    -0.000000    -0.000000    0.000000    -0.000000    -0.000000    0.000000    -0.000000    -0.000000    0.000000    -0.000000    -0.000000    0.000000    -0.000000    -0.000000    0.000000    -0.000000    -0.000000    -9.999997    -0.000000    -0.000000    0.000000    -0.000000    -0.000000    0.000000    -0.000000    13.591849    -18.144558    -3.674178    -0.000004    50.137939    0.000004    -9.061582    -27.763798    -2.259556    0.000001    -1.625715    -0.000002    -16.818460    -28.399084    -3.516021    -0.000001    50.739727    0.000002    15.866456    -13.944543    -6.917603    -0.000000    -4.200358    -0.000001    
